<svg id="Layer_1" data-name="Layer 1" xmlns="http://www.w3.org/2000/svg" viewBox="0 0 1002.85 179.51"><path d="M255.5,387.49c3.18,0,5.51.71,7,2.12a5.74,5.74,0,0,1,2,4.81,8.43,8.43,0,0,1-2.73,5.25q-2.52,2.55-7.44,3.28c-1.21.19-2.57.36-4.06.51s-3,.31-4.63.51a85.15,85.15,0,0,0-1,14q0,8.16.21,17.57t.35,19.53q.13,10.14-.49,19.91a129.78,129.78,0,0,1-2.46,18.44,54,54,0,0,1-5.47,15.24A28.8,28.8,0,0,1,227.37,519q-5.82,3.79-14.66,3.79a19.56,19.56,0,0,1-13.39-4.74,28.38,28.38,0,0,1-8-11.81,42.53,42.53,0,0,1-2.45-15.53,45.93,45.93,0,0,1,3-15.89,34.9,34.9,0,0,1,8.63-12.9,25.06,25.06,0,0,1,14.31-6.64,1.93,1.93,0,0,1,2,.95,5.11,5.11,0,0,1,.77,2.62,6.29,6.29,0,0,1-.49,2.85,2.59,2.59,0,0,1-2,1.6,25.19,25.19,0,0,0-12.63,6.13,30.15,30.15,0,0,0-7.57,10.86,36.3,36.3,0,0,0-2.67,13,32.73,32.73,0,0,0,2,12.46,22.67,22.67,0,0,0,6.59,9.41,15.76,15.76,0,0,0,10.87,3.57,13.19,13.19,0,0,0,9.47-3.94,27.62,27.62,0,0,0,6-10.28,69.94,69.94,0,0,0,3.37-15q1.05-8.52,1.47-17.93t.49-19.1q.08-9.69.21-18.59c.09-5.93.31-11.37.63-16.33a54.46,54.46,0,0,1,2-12.39q-8.7,1-17.68,2.91a51.43,51.43,0,0,0-16,6.13,21.5,21.5,0,0,0-9.18,10A18.71,18.71,0,0,0,191,435.39a12,12,0,0,0,5.54,8c3,1.89,7.11,2,12.35.36a2.79,2.79,0,0,1,2.87.37,4.17,4.17,0,0,1,1.33,2.4,5.31,5.31,0,0,1-.21,2.85,2.77,2.77,0,0,1-1.75,1.82,19.48,19.48,0,0,1-10.8.66,16.69,16.69,0,0,1-7.86-4.38,18.5,18.5,0,0,1-4.48-7.8,20.8,20.8,0,0,1-.57-9.62,25.8,25.8,0,0,1,4-9.77,27.08,27.08,0,0,1,9-8.31,52.81,52.81,0,0,1,8.14-3.79,75.28,75.28,0,0,1,9-2.7c3.14-.73,6.29-1.34,9.47-1.82s6.27-.93,9.26-1.32a25.46,25.46,0,0,1,7.08-10.93Q248.06,387.49,255.5,387.49Zm-1.55,13a11.49,11.49,0,0,0,5.41-2.12,5.06,5.06,0,0,0,2.1-3.13,2.86,2.86,0,0,0-1.12-2.7,6.27,6.27,0,0,0-4.28-.95q-4.63.3-6.73,2.92a18.34,18.34,0,0,0-3.23,6.85Z" transform="translate(-187.15 -387.49)"/><path d="M300,492.29a.83.83,0,0,1,.42-.5,1.06,1.06,0,0,1,.64-.11,1.24,1.24,0,0,1,.59.28.62.62,0,0,1,.16.66,66.65,66.65,0,0,1-1.92,8.13,33.8,33.8,0,0,1-3.45,7.84,20.79,20.79,0,0,1-5.26,5.91,12.4,12.4,0,0,1-7.34,2.43q-6.71.33-11-2.92a19.3,19.3,0,0,1-6.33-8.24,26.21,26.21,0,0,1-1.81-10.88,30.32,30.32,0,0,1,2.45-11.05,23.14,23.14,0,0,1,6.48-8.68A16.75,16.75,0,0,1,284,471.41a8,8,0,0,1,6,2,7.89,7.89,0,0,1,2.29,6,10.11,10.11,0,0,1-1.71,6,13.52,13.52,0,0,1-4.35,4,23.52,23.52,0,0,1-5.75,2.37,31.23,31.23,0,0,1-5.84,1,49.53,49.53,0,0,0-.06,6.17,26,26,0,0,0,1.17,6.67,14.09,14.09,0,0,0,3.09,5.39,7,7,0,0,0,5.58,2.11,10.31,10.31,0,0,0,6.27-2.21,19.68,19.68,0,0,0,4.57-5.2,28.67,28.67,0,0,0,3-6.68A51.36,51.36,0,0,0,300,492.29Zm-14.25-17.46a8.06,8.06,0,0,0-4.62,1.77,13.08,13.08,0,0,0-3.14,3.92,24.44,24.44,0,0,0-2,5.14,40.59,40.59,0,0,0-1.06,5.19,24,24,0,0,0,5.05-.82,21,21,0,0,0,5.05-2,12.53,12.53,0,0,0,3.88-3.37,8.09,8.09,0,0,0,1.54-5,5,5,0,0,0-1.27-3.75A4.08,4.08,0,0,0,285.72,474.83Z" transform="translate(-187.15 -387.49)"/><path d="M347,492.18c.07-.44.41-.62,1-.55s.87.37.8.88c-.36,2.14-.87,4.59-1.55,7.35a48.21,48.21,0,0,1-2.65,7.9,23,23,0,0,1-4.1,6.41,7.56,7.56,0,0,1-5.74,2.65,9.22,9.22,0,0,1-6.11-1.65,11,11,0,0,1-3.46-4.64,20.62,20.62,0,0,1-1.38-6.64,71.17,71.17,0,0,1,0-7.73q.21-4,.69-7.79t.64-6.8a25.42,25.42,0,0,0-.11-4.86c-.17-1.25-.65-1.92-1.43-2a4.9,4.9,0,0,0-4.25,2,22.32,22.32,0,0,0-3.46,5.75,55.05,55.05,0,0,0-2.71,8c-.78,2.95-1.43,5.82-2,8.62s-.95,5.36-1.27,7.68-.55,4.07-.69,5.25a12.94,12.94,0,0,0-.11,1.44v1.43c0,.67-.55,1.18-1.65,1.55a12.29,12.29,0,0,1-3.56.61,9.73,9.73,0,0,1-3.51-.5c-1.06-.37-1.59-1-1.59-1.88q.1-2.31.21-7c.07-3.09.18-6.56.32-10.39s.3-7.79.48-11.88.37-7.9.58-11.43a2.89,2.89,0,0,1,1.49-2.54,5.54,5.54,0,0,1,3-.72,6.11,6.11,0,0,1,2.92.83,2.33,2.33,0,0,1,1.33,2.09q-.21,6.19-.21,13.49v13.7c.49-3.09,1.17-6.35,2-9.78a65.47,65.47,0,0,1,3.08-9.45,27.56,27.56,0,0,1,4.2-7.13,6.72,6.72,0,0,1,5.48-2.7q5-.12,7.33,2.87a15.84,15.84,0,0,1,3,7.57,44.28,44.28,0,0,1,.27,10c-.29,3.61-.55,7-.8,10.06a53.58,53.58,0,0,0-.16,7.73c.14,2.07.81,3.1,2,3.1a5.74,5.74,0,0,0,4.41-2.32,22.67,22.67,0,0,0,3.41-5.64,50.25,50.25,0,0,0,2.39-6.91Q346.53,494.62,347,492.18Z" transform="translate(-187.15 -387.49)"/><path d="M358.55,421.9a4.19,4.19,0,0,1,2.81.94,5.5,5.5,0,0,1,1.65,2.32,10.32,10.32,0,0,1,.64,3,10.12,10.12,0,0,1-.21,3,12.24,12.24,0,0,1-2,4.25,14,14,0,0,1-4.94,4.15.73.73,0,0,1-.85-.11,3.16,3.16,0,0,1-.75-.83,1.93,1.93,0,0,1-.32-1.05.6.6,0,0,1,.53-.66,16.28,16.28,0,0,0,3.3-1.5,5.58,5.58,0,0,0,2.23-2.15,4.75,4.75,0,0,1-2.23.55,4.45,4.45,0,0,1-3.56-1.71,6.82,6.82,0,0,1,.05-8.45A4.57,4.57,0,0,1,358.55,421.9Z" transform="translate(-187.15 -387.49)"/><path d="M404.05,492.18c.07-.44.4-.62,1-.55s.86.37.79.88a14.83,14.83,0,0,1-2.33,6.3c-1.21,1.77-3.19,2.73-6,2.87v.89a16,16,0,0,1-1,5.52,12.44,12.44,0,0,1-2.92,4.64,13.59,13.59,0,0,1-5.16,3.15,22.62,22.62,0,0,1-7.76,1.16,10.42,10.42,0,0,1-4.73-1,9.68,9.68,0,0,1-3.19-2.49,9.12,9.12,0,0,1-1.75-3.37,9.57,9.57,0,0,1-.32-3.75,10.19,10.19,0,0,1,3.08-6.08c1.77-1.77,4.33-2.65,7.66-2.65a15.47,15.47,0,0,1,2.6.22l2.71.44a16.76,16.76,0,0,0-3-4.37c-1.24-1.28-2.51-2.54-3.82-3.75s-2.59-2.44-3.83-3.65a16.46,16.46,0,0,1-3-4,85.49,85.49,0,0,1-1.28,10.6.64.64,0,0,1-.32.56.9.9,0,0,1-.69.16,1,1,0,0,1-.63-.33.89.89,0,0,1-.16-.83,131,131,0,0,0,1.48-16.13v-1.27a6.17,6.17,0,0,1,.11-1.16,12.3,12.3,0,0,1,3.24-6.8,12.61,12.61,0,0,1,6.22-3.81,10.71,10.71,0,0,1,5.9-.28,7.07,7.07,0,0,1,3.88,2.6,9.18,9.18,0,0,1,1.65,4.64,13.82,13.82,0,0,1-.8,5.86c-.28.81-.71,1.07-1.27.77a1,1,0,0,1-.53-1.32,14.94,14.94,0,0,0,.63-4.31,9,9,0,0,0-.74-3.82,4.64,4.64,0,0,0-2.34-2.32,5.93,5.93,0,0,0-4.14.06,5.64,5.64,0,0,0-3.57,3.15,11.47,11.47,0,0,0,1.7,12.48,52.67,52.67,0,0,0,5.85,5.81q3.24,2.76,6.17,5.8a14.28,14.28,0,0,1,3.77,7,6,6,0,0,0,4.79-2.32A12.58,12.58,0,0,0,404.05,492.18ZM380.87,513a8,8,0,0,0,4.31-1.27,7.19,7.19,0,0,0,2.44-2.93,8.87,8.87,0,0,0,.74-3.93,16.77,16.77,0,0,0-.69-4.36c-1.06-.22-2.11-.4-3.13-.55a21,21,0,0,0-3-.23,7.84,7.84,0,0,0-5.85,2.16,7,7,0,0,0-2.23,4.7A5.66,5.66,0,0,0,375,511C376.23,512.29,378.18,513,380.87,513Z" transform="translate(-187.15 -387.49)"/><path d="M501.48,484.31c.09-.59.53-.83,1.33-.73s1.14.49,1.05,1.17a58.1,58.1,0,0,1-4.28,14,47.23,47.23,0,0,1-7.64,12,38,38,0,0,1-10.87,8.53,32.17,32.17,0,0,1-14,3.57q-11.92.44-20.13-5.11a38.79,38.79,0,0,1-13-15,65.75,65.75,0,0,1-6.31-21.6,105.66,105.66,0,0,1-.14-25,116.31,116.31,0,0,1,5.61-25,89,89,0,0,1,10.94-22,57.54,57.54,0,0,1,15.78-15.62,37.23,37.23,0,0,1,20.27-6.06,28.1,28.1,0,0,1,8.63,1.21,17.53,17.53,0,0,1,6.24,3.43,14.35,14.35,0,0,1,3.79,5.13,15.68,15.68,0,0,1,1.26,6.27,24.74,24.74,0,0,1-2.24,10.86,34.93,34.93,0,0,1-6.31,9.55,38.9,38.9,0,0,1-8.91,7.15,29.92,29.92,0,0,1-10,3.79,3.26,3.26,0,0,1-2.95-.8,4.41,4.41,0,0,1-1.33-2.63,4.07,4.07,0,0,1,.63-2.84,3.56,3.56,0,0,1,2.95-1.46,34.35,34.35,0,0,0,8.9-2.26,35,35,0,0,0,8.63-4.81,24.09,24.09,0,0,0,6.31-7.07,15.29,15.29,0,0,0,2-9.19,12.08,12.08,0,0,0-4.56-8.75q-4.29-3.65-13-3.5a24.67,24.67,0,0,0-14.37,6.57,55.21,55.21,0,0,0-11.44,14.8,97.62,97.62,0,0,0-8.13,20.34,139,139,0,0,0-4.49,23,124.87,124.87,0,0,0-.42,22.82A77.23,77.23,0,0,0,445.23,499a35.63,35.63,0,0,0,8.69,14.14,19.79,19.79,0,0,0,13.89,5.54,26,26,0,0,0,12.27-3,35.53,35.53,0,0,0,10.1-8,45.22,45.22,0,0,0,7.3-11.15A51.59,51.59,0,0,0,501.48,484.31Z" transform="translate(-187.15 -387.49)"/><path d="M534.11,492.18c.07-.44.41-.62,1-.55s.87.37.8.88c-.36,2-.85,4.37-1.49,7.13a50.27,50.27,0,0,1-2.55,8,24.12,24.12,0,0,1-3.93,6.52,7.12,7.12,0,0,1-5.53,2.7,8.83,8.83,0,0,1-6.75-2.43,16.36,16.36,0,0,1-4-6.52,38.46,38.46,0,0,1-1.86-8.89,88.71,88.71,0,0,1-.42-9.73c0-3.2.16-6.19.37-8.95s.35-4.95.42-6.57c-1-.08-1.93-.12-2.81-.12a15,15,0,0,1-2.61-.22q0,4.88-.37,9.78c-.25,3.28-.66,6.62-1.22,10a.67.67,0,0,1-.32.56.92.92,0,0,1-.69.16,1,1,0,0,1-.64-.33.89.89,0,0,1-.16-.83q.63-4.08,1-8.62t.48-11.05a18.84,18.84,0,0,1-6.81-2.43,6.68,6.68,0,0,1-3.19-5.41,7.42,7.42,0,0,1,.59-3.76,7,7,0,0,1,2.28-3,4,4,0,0,1,4.36-.67,4.38,4.38,0,0,1,2.45,2.05,10.43,10.43,0,0,1,1.17,3,46.31,46.31,0,0,1,1,8.51c.43.07.92.12,1.49.16s1.44.08,2.61.11,2.74.06,4.73.06h8c-.14.95-.44,2.63-.9,5s-.91,5.12-1.33,8.17-.78,6.25-1.06,9.56a65.83,65.83,0,0,0-.22,9.06,22.85,22.85,0,0,0,1.23,6.8q1,2.71,3.34,2.71a5.82,5.82,0,0,0,4.52-2.32,22.67,22.67,0,0,0,3.41-5.64,46,46,0,0,0,2.33-6.85C533.39,495.9,533.83,493.88,534.11,492.18Z" transform="translate(-187.15 -387.49)"/><path d="M582.91,492.18c.07-.44.41-.62,1-.55s.87.37.8.88c-.36,2.06-.85,4.48-1.49,7.24a49.94,49.94,0,0,1-2.55,8,23.41,23.41,0,0,1-3.94,6.46,7.14,7.14,0,0,1-5.53,2.65,8.66,8.66,0,0,1-5.42-1.71,12.86,12.86,0,0,1-3.67-4.64,28.86,28.86,0,0,1-2.23-6.69,60.16,60.16,0,0,1-1.11-7.84q-.54,3.54-1.39,7.24a33.55,33.55,0,0,1-2.23,6.68,17.26,17.26,0,0,1-3.35,5,6.51,6.51,0,0,1-4.83,2,10.7,10.7,0,0,1-8.3-3.15,19.13,19.13,0,0,1-4.62-8.23A31.46,31.46,0,0,1,533,494.61a35.73,35.73,0,0,1,2.33-10.88,23.81,23.81,0,0,1,5.48-8.46,12,12,0,0,1,8.4-3.53,6.8,6.8,0,0,1,3.4.83,9,9,0,0,1,2.61,2.2,15.35,15.35,0,0,1,1.91,3.1c.53,1.14,1,2.26,1.43,3.37l.32-7.85A2.78,2.78,0,0,1,560.8,471a8.25,8.25,0,0,1,3.88-.61,9.08,9.08,0,0,1,3.72,1.11,2.31,2.31,0,0,1,1.33,2.6c-.29,1.62-.62,3.7-1,6.24s-.73,5.25-1,8.12-.5,5.79-.64,8.73a57.28,57.28,0,0,0,.11,8,18.89,18.89,0,0,0,1.27,5.75c.64,1.47,1.56,2.21,2.76,2.21a6.06,6.06,0,0,0,4.68-2.32,20.74,20.74,0,0,0,3.4-5.58,46.78,46.78,0,0,0,2.29-6.86C582.18,495.92,582.63,493.88,582.91,492.18Zm-24.88-6q-.31-1.21-1-3.15a24.1,24.1,0,0,0-1.59-3.75,14.72,14.72,0,0,0-2.18-3.15,3.61,3.61,0,0,0-2.71-1.33q-1.92,0-3.4,2.76a27.74,27.74,0,0,0-2.45,7,65.21,65.21,0,0,0-1.33,9.23,62.07,62.07,0,0,0,0,9.23,28.93,28.93,0,0,0,1.28,7.07q.95,2.82,2.76,2.82a5.46,5.46,0,0,0,3.67-1.66,13.58,13.58,0,0,0,2.66-4,33.52,33.52,0,0,0,1.86-5.48q.74-3,1.22-6t.74-5.53C557.73,488.61,557.89,487.25,558,486.21Z" transform="translate(-187.15 -387.49)"/><path d="M612.89,492.18c.07-.44.41-.62,1-.55s.87.37.8.88a18.64,18.64,0,0,1-2.71,7.3,14.76,14.76,0,0,1-5.11,4.91,13,13,0,0,1-6.91,1.61,16.37,16.37,0,0,1-8.13-2.77q1.06,3.54,2.28,7.79c.82,2.84,1.6,5.8,2.34,8.9s1.46,6.22,2.13,9.39,1.26,6.3,1.75,9.4q.75,5,1.07,9.44a43,43,0,0,1-.11,8q-.52,5.29-2.82,7.79a7.65,7.65,0,0,1-5.05,2.7q-5.83.22-9.24-8.39a31.84,31.84,0,0,1-1.71-7q-.63-4.37-1-10t-.32-12q0-6.4.1-13.15.12-7.73.38-15.47c.17-5.15.39-10,.63-14.53s.52-8.64.8-12.32.53-6.63.75-8.84q.84-9.06,2.33-16.86A72,72,0,0,1,590,435.05a23.37,23.37,0,0,1,5.63-8.68,9.89,9.89,0,0,1,7.92-2.59c2.84.29,4.73,1.53,5.69,3.7a16.82,16.82,0,0,1,.91,8.45A58.75,58.75,0,0,1,607.41,448q-2.17,6.74-5,13.53t-5.9,13q-3,6.19-5.26,10.39-.21,3.87-.32,7.73l-.21,7.74a14.91,14.91,0,0,0,6.75,3.65,12,12,0,0,0,6.75-.39,12.67,12.67,0,0,0,5.53-4A16.25,16.25,0,0,0,612.89,492.18Zm-14.46,47.08c-.42-2.8-.94-5.69-1.54-8.68s-1.26-5.91-2-8.78-1.43-5.66-2.18-8.35-1.47-5.17-2.18-7.46q-.1,5-.32,11.88T589.87,532q-.15,7.18,0,13.93a101.15,101.15,0,0,0,.74,11.49,10.68,10.68,0,0,0,1.6,4.59,2.68,2.68,0,0,0,2.34,1.27,4.5,4.5,0,0,0,3.08-2,10.15,10.15,0,0,0,1.91-4.8,52.1,52.1,0,0,0,.06-7.85A87,87,0,0,0,598.43,539.26Zm-5.85-73.82q-.42,3.54-.69,7.29c-.18,2.51-.33,5-.48,7.63q2.34-4.53,5.05-10.34t5.21-11.88q2.51-6.08,4.31-11.93a59.58,59.58,0,0,0,2.34-10.5,8.72,8.72,0,0,0-1-5.63,4.55,4.55,0,0,0-3.35-2.21,5.21,5.21,0,0,0-3.72,1.16,9.44,9.44,0,0,0-3.09,4.58,57,57,0,0,0-2.6,12.76Q593.65,454.5,592.58,465.44Z" transform="translate(-187.15 -387.49)"/><path d="M641.7,492.29c.07-.44.41-.62,1-.55s.87.37.8.88c-.43,2.43-1,5.07-1.81,7.9a38.93,38.93,0,0,1-3.14,8,20.26,20.26,0,0,1-4.78,6.08,9.67,9.67,0,0,1-6.75,2.26,12.52,12.52,0,0,1-7.62-2.1,14,14,0,0,1-4.42-5.58,26.84,26.84,0,0,1-2.1-7.79,72.05,72.05,0,0,1-.53-8.73c0-.59,0-2,.1-4.2s.16-4.84.27-7.9.23-6.39.37-10,.28-7.11.43-10.5l-10.1-.11c-.57,0-.85-.31-.85-.94s.28-.94.85-.94h10.2q.21-4.63.32-8.45c.07-2.54.11-4.47.11-5.8,0-.67.45-1.16,1.36-1.49a8.33,8.33,0,0,1,2.94-.5,7.33,7.33,0,0,1,2.89.55c.87.37,1.31.89,1.31,1.55l-.42,14.25,11.69.11c.43,0,.64.32.64.94s-.25.94-.74.94H622c-.14,3.32-.26,6.74-.37,10.28s-.23,6.85-.36,9.95-.25,5.76-.32,8-.1,3.74-.1,4.47q0,3.44.21,7a38.15,38.15,0,0,0,.89,6.46,16,16,0,0,0,1.91,4.86,3.71,3.71,0,0,0,3.24,1.94A8.34,8.34,0,0,0,633,511a19,19,0,0,0,4.25-5.36,33.4,33.4,0,0,0,2.81-6.85Q641.17,495.17,641.7,492.29Z" transform="translate(-187.15 -387.49)"/><path d="M675.72,492.18c.07-.44.41-.62,1-.55s.87.37.8.88a15,15,0,0,1-2.34,6.3c-1.21,1.77-3.19,2.73-6,2.87v.89a16.26,16.26,0,0,1-1,5.52,12.59,12.59,0,0,1-2.93,4.64,13.63,13.63,0,0,1-5.15,3.15,22.7,22.7,0,0,1-7.76,1.16,10.44,10.44,0,0,1-4.74-1,9.54,9.54,0,0,1-3.18-2.49,9,9,0,0,1-1.76-3.37,9.76,9.76,0,0,1-.32-3.75,10.15,10.15,0,0,1,3.09-6.08q2.65-2.66,7.65-2.65a15.47,15.47,0,0,1,2.6.22l2.72.44a17.25,17.25,0,0,0-3-4.37c-1.25-1.28-2.52-2.54-3.83-3.75s-2.59-2.44-3.83-3.65a16.46,16.46,0,0,1-3-4,87.44,87.44,0,0,1-1.27,10.6.67.67,0,0,1-.32.56.92.92,0,0,1-.69.16,1,1,0,0,1-.64-.33.89.89,0,0,1-.16-.83,133.09,133.09,0,0,0,1.49-16.13v-1.27a6.19,6.19,0,0,1,.1-1.16,12.31,12.31,0,0,1,3.25-6.8,12.58,12.58,0,0,1,6.21-3.81,10.71,10.71,0,0,1,5.9-.28,7.13,7.13,0,0,1,3.89,2.6,9.08,9.08,0,0,1,1.64,4.64,14,14,0,0,1-.79,5.86c-.29.81-.71,1.07-1.28.77a1,1,0,0,1-.53-1.32,15,15,0,0,0,.64-4.31,9,9,0,0,0-.75-3.82,4.57,4.57,0,0,0-2.34-2.32,5.93,5.93,0,0,0-4.14.06,5.6,5.6,0,0,0-3.56,3.15,11.25,11.25,0,0,0-1.12,5.47,11.39,11.39,0,0,0,2.82,7,51.72,51.72,0,0,0,5.84,5.81,82.73,82.73,0,0,1,6.17,5.8,14.2,14.2,0,0,1,3.77,7,6,6,0,0,0,4.79-2.32A12.58,12.58,0,0,0,675.72,492.18ZM652.54,513a8,8,0,0,0,4.31-1.27,7.11,7.11,0,0,0,2.44-2.93,9,9,0,0,0,.75-3.93,17.66,17.66,0,0,0-.69-4.36c-1.07-.22-2.11-.4-3.14-.55a21,21,0,0,0-3-.23,7.84,7.84,0,0,0-5.85,2.16,7,7,0,0,0-2.23,4.7,5.66,5.66,0,0,0,1.59,4.42C647.9,512.29,649.85,513,652.54,513Z" transform="translate(-187.15 -387.49)"/><path d="M783.94,462.23a1.52,1.52,0,0,1,.43,1.33,4.48,4.48,0,0,1-.48,1.49,2.39,2.39,0,0,1-1,1.05.91.91,0,0,1-1.17-.22,9.48,9.48,0,0,0-4.94-2.65,8.74,8.74,0,0,0-4.63.6,17.43,17.43,0,0,0-4.41,2.77c-1.45,1.21-2.92,2.49-4.41,3.81a20.59,20.59,0,0,1,4.09,8.9,34.59,34.59,0,0,1,.48,11,40.7,40.7,0,0,1-3,11.38,36.61,36.61,0,0,1-6.33,10.06,30.25,30.25,0,0,1-9.51,7.13,26.56,26.56,0,0,1-12.6,2.48q-9-.11-15-3.86a25.1,25.1,0,0,1-9-9.45,27.07,27.07,0,0,1-3.14-12.49,32.94,32.94,0,0,1,2.5-13.15A32.46,32.46,0,0,1,719.73,471a30.11,30.11,0,0,1,13.18-7.13q-7.33-1.54-11.53-5.47a19.88,19.88,0,0,1-5.69-8.84,21.12,21.12,0,0,1-.43-10.33,24.51,24.51,0,0,1,4.36-9.89,26.54,26.54,0,0,1,8.51-7.41,25.24,25.24,0,0,1,12.12-3,20.7,20.7,0,0,1,9.25,2,21.26,21.26,0,0,1,7.07,5.58,24.46,24.46,0,0,1,4.41,8.18,27.24,27.24,0,0,1,1.27,9.61c0,.81-.53,1.44-1.59,1.88a8.8,8.8,0,0,1-3.4.66,8,8,0,0,1-3.3-.66,1.84,1.84,0,0,1-1.27-2.1c.21-2.14.31-4.51.31-7.13a25.44,25.44,0,0,0-1-7.29,13,13,0,0,0-3.35-5.64q-2.34-2.26-6.6-2a13.91,13.91,0,0,0-8.29,3.15,21.67,21.67,0,0,0-5.79,7.29,30.06,30.06,0,0,0-2.87,9.4,25,25,0,0,0,.42,9.5,16.49,16.49,0,0,0,4.26,7.68,13.8,13.8,0,0,0,8.45,3.87c.85-.08,1.72-.13,2.6-.17s1.79-.06,2.71-.06,1.21.43,1.28,1.06-.29,1-1.06,1a21,21,0,0,0-12.44,4.48,30,30,0,0,0-8.24,10.17,37.41,37.41,0,0,0-3.78,12.87,33.87,33.87,0,0,0,.85,12.65,20.32,20.32,0,0,0,5.64,9.62q4,3.81,10.63,3.7a20.09,20.09,0,0,0,9.57-2.49,26.07,26.07,0,0,0,7.44-6.24,35.17,35.17,0,0,0,5.26-8.78,47,47,0,0,0,3-9.95,39.09,39.09,0,0,0,.58-9.67,24.4,24.4,0,0,0-1.8-8.07,30.5,30.5,0,0,1-4.79,3.37,10.31,10.31,0,0,1-5.21,1.38q-3.72,0-5.47-2a6.11,6.11,0,0,1-1.65-4.42,7,7,0,0,1,2-4.48,7.26,7.26,0,0,1,5.37-2.16,15.94,15.94,0,0,1,11.16,4q2.55-2.43,5.1-4.92a22,22,0,0,1,5.26-3.86,10.16,10.16,0,0,1,5.64-1.11Q780.75,459.15,783.94,462.23Zm-33.49,13.6a8.55,8.55,0,0,0,4.58-1.39,27.55,27.55,0,0,0,4.35-3.37,10.33,10.33,0,0,0-3.61-3.37,8.91,8.91,0,0,0-5-.94,4.4,4.4,0,0,0-3.56,1.44,5.32,5.32,0,0,0-1.33,3.21,4.69,4.69,0,0,0,1.06,3A4.56,4.56,0,0,0,750.45,475.83Z" transform="translate(-187.15 -387.49)"/><path d="M895.3,484.31c.09-.59.54-.83,1.33-.73s1.14.49,1,1.17a58.1,58.1,0,0,1-4.28,14,47.23,47.23,0,0,1-7.64,12,38,38,0,0,1-10.87,8.53,32.13,32.13,0,0,1-14,3.57q-11.92.44-20.13-5.11a38.76,38.76,0,0,1-13-15,65.75,65.75,0,0,1-6.32-21.6,106.19,106.19,0,0,1-.14-25,115.73,115.73,0,0,1,5.62-25,88.63,88.63,0,0,1,10.94-22,57.54,57.54,0,0,1,15.78-15.62A37.18,37.18,0,0,1,874,387.49a28.08,28.08,0,0,1,8.62,1.21,17.53,17.53,0,0,1,6.24,3.43,14.35,14.35,0,0,1,3.79,5.13,15.52,15.52,0,0,1,1.27,6.27,24.75,24.75,0,0,1-2.25,10.86,34.7,34.7,0,0,1-6.31,9.55,38.9,38.9,0,0,1-8.91,7.15,29.92,29.92,0,0,1-10,3.79,3.24,3.24,0,0,1-2.94-.8,4.43,4.43,0,0,1-1.34-2.63,4.07,4.07,0,0,1,.63-2.84,3.59,3.59,0,0,1,3-1.46,34.42,34.42,0,0,0,8.91-2.26,35.17,35.17,0,0,0,8.63-4.81,24.23,24.23,0,0,0,6.31-7.07,15.28,15.28,0,0,0,2-9.19,12.08,12.08,0,0,0-4.56-8.75q-4.28-3.65-13-3.5a24.69,24.69,0,0,0-14.38,6.57,55,55,0,0,0-11.43,14.8A97.08,97.08,0,0,0,840,433.28a139,139,0,0,0-4.49,23,124.87,124.87,0,0,0-.42,22.82A77.23,77.23,0,0,0,839.05,499a35.53,35.53,0,0,0,8.7,14.14,19.75,19.75,0,0,0,13.88,5.54,26,26,0,0,0,12.28-3,35.8,35.8,0,0,0,10.1-8,45.47,45.47,0,0,0,7.29-11.15A51.14,51.14,0,0,0,895.3,484.31Z" transform="translate(-187.15 -387.49)"/><path d="M927.93,492.18c.08-.44.41-.62,1-.55s.86.37.79.88q-.53,3-1.49,7.13a48.3,48.3,0,0,1-2.55,8,24.12,24.12,0,0,1-3.93,6.52,7.1,7.1,0,0,1-5.53,2.7,8.86,8.86,0,0,1-6.75-2.43,16.36,16.36,0,0,1-4-6.52,38.46,38.46,0,0,1-1.86-8.89,88.71,88.71,0,0,1-.42-9.73c0-3.2.16-6.19.37-8.95s.35-4.95.42-6.57c-1-.08-1.93-.12-2.81-.12a15,15,0,0,1-2.61-.22q0,4.88-.37,9.78c-.25,3.28-.65,6.62-1.22,10a.67.67,0,0,1-.32.56.9.9,0,0,1-.69.16,1,1,0,0,1-.64-.33.89.89,0,0,1-.16-.83c.43-2.72.76-5.59,1-8.62s.41-6.7.48-11.05a18.72,18.72,0,0,1-6.8-2.43,6.63,6.63,0,0,1-3.19-5.41,7.3,7.3,0,0,1,.58-3.76,7,7,0,0,1,2.29-3,4,4,0,0,1,4.35-.67,4.38,4.38,0,0,1,2.45,2.05,10.16,10.16,0,0,1,1.17,3,47.06,47.06,0,0,1,1,8.51c.42.07.92.12,1.48.16s1.44.08,2.61.11,2.75.06,4.73.06h8c-.14.95-.44,2.63-.9,5s-.9,5.12-1.33,8.17-.78,6.25-1.06,9.56a64.18,64.18,0,0,0-.21,9.06,22.88,22.88,0,0,0,1.22,6.8q1,2.71,3.35,2.71a5.85,5.85,0,0,0,4.52-2.32,22.65,22.65,0,0,0,3.4-5.64,47.24,47.24,0,0,0,2.34-6.85C927.21,495.9,927.65,493.88,927.93,492.18Z" transform="translate(-187.15 -387.49)"/><path d="M962.17,492.29a.83.83,0,0,1,.42-.5,1.06,1.06,0,0,1,.64-.11,1.29,1.29,0,0,1,.59.28.62.62,0,0,1,.15.66,64.74,64.74,0,0,1-1.91,8.13,33.8,33.8,0,0,1-3.45,7.84,20.67,20.67,0,0,1-5.27,5.91,12.35,12.35,0,0,1-7.33,2.43q-6.71.33-11-2.92a19.15,19.15,0,0,1-6.33-8.24,26.05,26.05,0,0,1-1.81-10.88,30.11,30.11,0,0,1,2.45-11.05,23.14,23.14,0,0,1,6.48-8.68,16.75,16.75,0,0,1,10.42-3.75,8,8,0,0,1,6,2,7.88,7.88,0,0,1,2.28,6,10.18,10.18,0,0,1-1.7,6,13.56,13.56,0,0,1-4.36,4,23.29,23.29,0,0,1-5.74,2.37,31.23,31.23,0,0,1-5.84,1,49.53,49.53,0,0,0-.06,6.17,26,26,0,0,0,1.17,6.67,14.07,14.07,0,0,0,3.08,5.39,7,7,0,0,0,5.59,2.11,10.34,10.34,0,0,0,6.27-2.21,19.86,19.86,0,0,0,4.57-5.2,28.67,28.67,0,0,0,3-6.68A53,53,0,0,0,962.17,492.29Zm-14.25-17.46a8.06,8.06,0,0,0-4.62,1.77,13.08,13.08,0,0,0-3.14,3.92,24.44,24.44,0,0,0-2,5.14,38.94,38.94,0,0,0-1.06,5.19,24,24,0,0,0,5-.82,21.15,21.15,0,0,0,5-2,12.53,12.53,0,0,0,3.88-3.37,8.16,8.16,0,0,0,1.54-5,5,5,0,0,0-1.28-3.75A4.06,4.06,0,0,0,947.92,474.83Z" transform="translate(-187.15 -387.49)"/><path d="M1011,492.18c.07-.44.41-.62,1-.55s.87.37.8.88c-.35,2.06-.85,4.48-1.49,7.24a49.94,49.94,0,0,1-2.55,8,23.16,23.16,0,0,1-3.93,6.46,7.14,7.14,0,0,1-5.53,2.65,8.64,8.64,0,0,1-5.42-1.71,12.86,12.86,0,0,1-3.67-4.64,28.39,28.39,0,0,1-2.23-6.69,60.14,60.14,0,0,1-1.12-7.84q-.52,3.54-1.38,7.24a34.2,34.2,0,0,1-2.23,6.68,17.46,17.46,0,0,1-3.35,5,6.53,6.53,0,0,1-4.84,2,10.68,10.68,0,0,1-8.29-3.15,19,19,0,0,1-4.63-8.23,31.71,31.71,0,0,1-1.06-10.83,36,36,0,0,1,2.34-10.88,23.79,23.79,0,0,1,5.47-8.46,12,12,0,0,1,8.4-3.53,6.84,6.84,0,0,1,3.41.83,8.79,8.79,0,0,1,2.6,2.2,15.35,15.35,0,0,1,1.91,3.1c.53,1.14,1,2.26,1.44,3.37l.32-7.85a2.78,2.78,0,0,1,1.91-2.43,8.27,8.27,0,0,1,3.88-.61,9.08,9.08,0,0,1,3.72,1.11,2.31,2.31,0,0,1,1.33,2.6q-.42,2.43-1,6.24t-1,8.12c-.28,2.88-.5,5.79-.64,8.73a58.88,58.88,0,0,0,.11,8,18.87,18.87,0,0,0,1.28,5.75c.63,1.47,1.55,2.21,2.76,2.21a6.09,6.09,0,0,0,4.68-2.32,21,21,0,0,0,3.4-5.58,48,48,0,0,0,2.29-6.86Q1010.54,494.73,1011,492.18Zm-24.87-6c-.22-.81-.53-1.86-1-3.15a25.1,25.1,0,0,0-1.59-3.75,14.72,14.72,0,0,0-2.18-3.15,3.63,3.63,0,0,0-2.71-1.33c-1.28,0-2.41.92-3.41,2.76a28.16,28.16,0,0,0-2.44,7,63.8,63.8,0,0,0-1.33,9.23,60.75,60.75,0,0,0-.05,9.23,29,29,0,0,0,1.27,7.07c.64,1.88,1.56,2.82,2.77,2.82a5.44,5.44,0,0,0,3.66-1.66,13.39,13.39,0,0,0,2.66-4,32.6,32.6,0,0,0,1.86-5.48q.75-3,1.22-6t.75-5.53C985.79,488.61,985.94,487.25,986.09,486.21Z" transform="translate(-187.15 -387.49)"/><path d="M1039.77,492.29c.07-.44.41-.62,1-.55s.87.37.8.88c-.42,2.43-1,5.07-1.81,7.9a38.9,38.9,0,0,1-3.13,8,20.29,20.29,0,0,1-4.79,6.08,9.64,9.64,0,0,1-6.75,2.26,12.52,12.52,0,0,1-7.62-2.1,13.87,13.87,0,0,1-4.41-5.58,26.85,26.85,0,0,1-2.11-7.79,72.05,72.05,0,0,1-.53-8.73c0-.59,0-2,.11-4.2s.16-4.84.27-7.9.22-6.39.37-10,.28-7.11.42-10.5l-10.1-.11c-.56,0-.85-.31-.85-.94s.29-.94.85-.94h10.21q.21-4.63.32-8.45c.07-2.54.1-4.47.1-5.8,0-.67.46-1.16,1.37-1.49a8.33,8.33,0,0,1,2.94-.5,7.37,7.37,0,0,1,2.89.55c.87.37,1.31.89,1.31,1.55l-.43,14.25,11.7.11c.42,0,.64.32.64.94s-.25.94-.75.94h-11.69c-.14,3.32-.27,6.74-.37,10.28s-.23,6.85-.37,9.95-.24,5.76-.31,8-.11,3.74-.11,4.47q0,3.44.21,7a38.11,38.11,0,0,0,.9,6.46,15.7,15.7,0,0,0,1.91,4.86,3.69,3.69,0,0,0,3.24,1.94,8.31,8.31,0,0,0,5.9-2.05,19,19,0,0,0,4.25-5.36,34,34,0,0,0,2.82-6.85A65.35,65.35,0,0,0,1039.77,492.29Z" transform="translate(-187.15 -387.49)"/><path d="M1063.8,492.18c.14-.44.51-.64,1.12-.61a.74.74,0,0,1,.79.94c-.35,2.06-.85,4.48-1.48,7.24a46.35,46.35,0,0,1-2.61,8,24.25,24.25,0,0,1-4,6.46,7.14,7.14,0,0,1-5.52,2.65,9.46,9.46,0,0,1-6.91-2.59,16.49,16.49,0,0,1-4-6.63,37.06,37.06,0,0,1-1.81-9,92.33,92.33,0,0,1-.32-9.78c.07-3.2.21-6.19.43-8.95s.35-4.92.42-6.47a2.58,2.58,0,0,1,1.86-2.43,8.56,8.56,0,0,1,3.93-.61,9,9,0,0,1,3.72,1.11,2.3,2.3,0,0,1,1.33,2.6q-.42,2.43-1,6.24t-1.06,8.12q-.48,4.32-.69,8.73a57.28,57.28,0,0,0,.11,8,18.89,18.89,0,0,0,1.27,5.75,3.1,3.1,0,0,0,2.87,2.21,6.09,6.09,0,0,0,4.68-2.32,20.74,20.74,0,0,0,3.4-5.58,42.34,42.34,0,0,0,2.23-6.86Q1063.38,494.73,1063.8,492.18Zm-17.43-23.76a4.49,4.49,0,0,1-3.57-1.71,7,7,0,0,1,0-8.51,4.49,4.49,0,0,1,3.57-1.71,4.62,4.62,0,0,1,3.61,1.71,6.82,6.82,0,0,1,0,8.51A4.62,4.62,0,0,1,1046.37,468.42Z" transform="translate(-187.15 -387.49)"/><path d="M1107.28,492.18c.07-.44.41-.62,1-.55s.87.37.8.88a16.05,16.05,0,0,1-1.86,4.92,11.36,11.36,0,0,1-3.46,3.7,12.74,12.74,0,0,1-4.46,1.94,14,14,0,0,1-4.79.16,23.2,23.2,0,0,1-5.74,9.67,13.53,13.53,0,0,1-10,3.92,12.43,12.43,0,0,1-9.2-3.26,19.35,19.35,0,0,1-5.15-8.39,30.46,30.46,0,0,1-1.28-10.89,32.9,32.9,0,0,1,2.45-10.94,22.2,22.2,0,0,1,6-8.4,13.79,13.79,0,0,1,9.36-3.31,12.06,12.06,0,0,1,7.23,2.21,16.31,16.31,0,0,1,4.94,5.74,25.39,25.39,0,0,1,2.55,8,35.39,35.39,0,0,1,.27,8.84,24.76,24.76,0,0,1-.85,5,11.83,11.83,0,0,0,4-.22,11,11,0,0,0,3.67-1.55,9.91,9.91,0,0,0,3-3.26A13.17,13.17,0,0,0,1107.28,492.18Zm-15.2,10.58a8.84,8.84,0,0,1-4.79-3.16,7.38,7.38,0,0,1-1.38-4.15,6.38,6.38,0,0,1,1.17-3.77,5.07,5.07,0,0,1,2.87-2.11,4,4,0,0,1,3.62.78,32.93,32.93,0,0,0-1-5.93,17.52,17.52,0,0,0-2.13-5,11.62,11.62,0,0,0-3.24-3.43,7.42,7.42,0,0,0-4.3-1.28c-1.64,0-3.14,1-4.52,2.88a25.87,25.87,0,0,0-3.46,7.15,43.59,43.59,0,0,0-1.86,9.2,39.54,39.54,0,0,0,.11,9.2,17.35,17.35,0,0,0,2.39,7.09,5.75,5.75,0,0,0,5.1,2.83,9.38,9.38,0,0,0,7.07-2.94A19.3,19.3,0,0,0,1092.08,502.76Z" transform="translate(-187.15 -387.49)"/><path d="M1154.27,492.18c.07-.44.41-.62,1-.55s.87.37.8.88q-.54,3.21-1.54,7.35a48.24,48.24,0,0,1-2.66,7.9,23.17,23.17,0,0,1-4.09,6.41,7.59,7.59,0,0,1-5.75,2.65,9.22,9.22,0,0,1-6.11-1.65,11,11,0,0,1-3.45-4.64,20.89,20.89,0,0,1-1.39-6.64,71.17,71.17,0,0,1,0-7.73q.23-4,.7-7.79c.31-2.54.53-4.81.63-6.8a26.4,26.4,0,0,0-.1-4.86c-.18-1.25-.66-1.92-1.44-2a4.91,4.91,0,0,0-4.25,2,22.32,22.32,0,0,0-3.46,5.75,56.3,56.3,0,0,0-2.71,8q-1.17,4.43-2,8.62c-.54,2.8-1,5.36-1.28,7.68s-.55,4.07-.69,5.25a12.94,12.94,0,0,0-.11,1.44v1.43c0,.67-.55,1.18-1.64,1.55a12.35,12.35,0,0,1-3.57.61,9.64,9.64,0,0,1-3.5-.5c-1.07-.37-1.6-1-1.6-1.88q.11-2.31.21-7c.08-3.09.18-6.56.32-10.39s.31-7.79.48-11.88.37-7.9.59-11.43a2.89,2.89,0,0,1,1.48-2.54,5.54,5.54,0,0,1,3-.72,6.11,6.11,0,0,1,2.92.83,2.33,2.33,0,0,1,1.33,2.09q-.21,6.19-.21,13.49v13.7q.75-4.64,2-9.78a65.47,65.47,0,0,1,3.08-9.45,27.56,27.56,0,0,1,4.2-7.13,6.72,6.72,0,0,1,5.48-2.7q5-.12,7.33,2.87a15.84,15.84,0,0,1,3,7.57,44.28,44.28,0,0,1,.27,10q-.42,5.42-.8,10.06a53.58,53.58,0,0,0-.16,7.73c.14,2.07.82,3.1,2,3.1a5.74,5.74,0,0,0,4.41-2.32,22.67,22.67,0,0,0,3.41-5.64,50.25,50.25,0,0,0,2.39-6.91Q1153.85,494.62,1154.27,492.18Z" transform="translate(-187.15 -387.49)"/><path d="M1188.18,492.18c.07-.44.41-.62,1-.55s.87.37.8.88a15,15,0,0,1-2.34,6.3q-1.82,2.65-6,2.87v.89a16,16,0,0,1-1,5.52,12.57,12.57,0,0,1-2.92,4.64,13.67,13.67,0,0,1-5.16,3.15,22.66,22.66,0,0,1-7.76,1.16,10.42,10.42,0,0,1-4.73-1,9.58,9.58,0,0,1-3.19-2.49,9,9,0,0,1-1.75-3.37,9.39,9.39,0,0,1-.32-3.75,10.19,10.19,0,0,1,3.08-6.08q2.65-2.66,7.65-2.65a15.68,15.68,0,0,1,2.61.22l2.71.44a16.76,16.76,0,0,0-3-4.37c-1.24-1.28-2.52-2.54-3.83-3.75s-2.59-2.44-3.82-3.65a16.21,16.21,0,0,1-3-4,87.44,87.44,0,0,1-1.28,10.6.67.67,0,0,1-.32.56.9.9,0,0,1-.69.16,1,1,0,0,1-.64-.33.92.92,0,0,1-.16-.83,131.1,131.1,0,0,0,1.49-16.13v-1.27a6.17,6.17,0,0,1,.11-1.16,12.23,12.23,0,0,1,3.24-6.8,12.61,12.61,0,0,1,6.22-3.81,10.71,10.71,0,0,1,5.9-.28,7.11,7.11,0,0,1,3.88,2.6,9.18,9.18,0,0,1,1.65,4.64,14,14,0,0,1-.8,5.86c-.28.81-.71,1.07-1.28.77a1,1,0,0,1-.53-1.32,14.61,14.61,0,0,0,.64-4.31,9.1,9.1,0,0,0-.74-3.82,4.64,4.64,0,0,0-2.34-2.32,6,6,0,0,0-4.15.06,5.6,5.6,0,0,0-3.56,3.15,11.25,11.25,0,0,0-1.12,5.47,11.39,11.39,0,0,0,2.82,7,52.67,52.67,0,0,0,5.85,5.81,84.58,84.58,0,0,1,6.16,5.8,14.29,14.29,0,0,1,3.78,7,6,6,0,0,0,4.78-2.32A12.44,12.44,0,0,0,1188.18,492.18ZM1165,513a8,8,0,0,0,4.3-1.27,7.14,7.14,0,0,0,2.45-2.93,8.87,8.87,0,0,0,.74-3.93,17.21,17.21,0,0,0-.69-4.36c-1.06-.22-2.11-.4-3.14-.55a20.82,20.82,0,0,0-3-.23,7.8,7.8,0,0,0-5.84,2.16,7,7,0,0,0-2.24,4.7,5.64,5.64,0,0,0,1.6,4.42C1160.36,512.29,1162.31,513,1165,513Z" transform="translate(-187.15 -387.49)"/></svg>