<svg xmlns:xlink="http://www.w3.org/1999/xlink" xmlns="http://www.w3.org/2000/svg" viewBox="0 0 116.55 90.7" width="116.55"  height="90.7" ><defs><style>.cls-1{fill:#ff5f00;}.cls-2{fill:#eb001b;}.cls-3{fill:#f79e1b;}</style></defs><title>mastercard</title><g id="Layer_2" data-name="Layer 2"><g id="Isolation_Mode" data-name="Isolation Mode"><path id="_Compound_Path_" data-name=" Compound Path " d="M21.05,90.1v-6a3.49,3.49,0,0,0-3.7-3.8A3.94,3.94,0,0,0,14,82a3.5,3.5,0,0,0-3.2-1.7,3.4,3.4,0,0,0-2.9,1.4V80.5H6v9.6h1.9V84.6a2.24,2.24,0,0,1,2.4-2.5c1.4,0,2.2.9,2.2,2.5v5.5h1.9V84.6a2.24,2.24,0,0,1,2.4-2.5c1.4,0,2.2.9,2.2,2.5v5.5Zm31.2-9.5h-3.5V77.7h-1.9v2.9h-2v1.7h2v4.5c0,2.2.8,3.5,3.2,3.5a5.59,5.59,0,0,0,2.6-.7l-.6-1.7a3.29,3.29,0,0,1-1.8.5,1.4,1.4,0,0,1-1.5-1.6V82.2h3.5Zm17.8-.3a3,3,0,0,0-2.6,1.4V80.5h-1.9v9.6h1.9V84.7c0-1.6.8-2.6,2.1-2.6a5.85,5.85,0,0,1,1.3.2l.6-1.8A6.75,6.75,0,0,0,70.05,80.3Zm-26.9,1a6.86,6.86,0,0,0-3.9-1c-2.4,0-3.9,1.1-3.9,3,0,1.6,1.1,2.5,3.2,2.8l1,.1c1.1.2,1.8.6,1.8,1.1,0,.7-.8,1.2-2.3,1.2a5.27,5.27,0,0,1-3.2-1l-1,1.5A7.24,7.24,0,0,0,39,90.2c2.8,0,4.3-1.3,4.3-3.1s-1.2-2.5-3.3-2.8l-1-.1c-.9-.1-1.7-.4-1.7-1s.8-1.2,1.9-1.2a7.21,7.21,0,0,1,3,.8Zm29.1,4a4.72,4.72,0,0,0,5,5,5,5,0,0,0,3.4-1.1l-1-1.5a4,4,0,0,1-2.5.9,3.21,3.21,0,0,1,0-6.4,4,4,0,0,1,2.5.9l1-1.5a5,5,0,0,0-3.4-1.1,4.48,4.48,0,0,0-5,4.8Zm-13.5-5c-2.8,0-4.7,2-4.7,5a4.7,4.7,0,0,0,4.39,5H59a6.12,6.12,0,0,0,3.9-1.3l-1-1.4a4.78,4.78,0,0,1-2.8,1,2.81,2.81,0,0,1-2.9-2.5h7.1v-.8C63.25,82.3,61.45,80.3,58.75,80.3Zm0,1.8a2.39,2.39,0,0,1,2.5,2.28s0,.08,0,.12h-5.2A2.57,2.57,0,0,1,58.75,82.1Zm-25.9,3.2V80.5H31v1.2a3.68,3.68,0,0,0-3.1-1.4,5,5,0,0,0,0,10A3.68,3.68,0,0,0,31,88.9v1.2h1.9Zm-7.8,0a3,3,0,1,1,3,3.2,2.94,2.94,0,0,1-3-3.2Zm73.9-5a3,3,0,0,0-2.6,1.4V80.5h-1.9v9.6h1.9V84.7c0-1.6.8-2.6,2.1-2.6a5.85,5.85,0,0,1,1.3.2l.6-1.8A6.75,6.75,0,0,0,99,80.3Zm15.4,8.4a.6.6,0,0,1,.4.1c.1,0,.2.1.3.2s.2.2.2.3.1.2.1.4a.6.6,0,0,1-.1.4c-.1.1-.1.2-.2.3s-.2.2-.3.2-.2.1-.4.1a.6.6,0,0,1-.4-.1c-.1-.1-.2-.1-.3-.2s-.2-.2-.2-.3-.1-.2-.1-.4a.6.6,0,0,1,.1-.4c.1-.1.1-.2.2-.3s.2-.2.3-.2S114.25,88.7,114.35,88.7Zm0,1.7a.37.37,0,0,0,.3-.1.22.22,0,0,0,.2-.2l.2-.2c0-.1.1-.2.1-.3a.37.37,0,0,0-.1-.3.22.22,0,0,0-.2-.2l-.2-.2c-.1,0-.2-.1-.3-.1a.37.37,0,0,0-.3.1.22.22,0,0,0-.2.2l-.2.2c0,.1-.1.2-.1.3a.37.37,0,0,0,.1.3.22.22,0,0,0,.2.2l.2.2A.37.37,0,0,0,114.35,90.4Zm.1-1.1a.37.37,0,0,1,.3.1c.1.1.1.1.1.2s0,.1-.1.2a.35.35,0,0,1-.2.1l.3.3h-.3l-.3-.3h-.1v.3H114v-.9Zm-.2.1v.2h.3v-.2Zm-22.7-4.1V80.5h-1.9v1.2a3.68,3.68,0,0,0-3.1-1.4,5,5,0,0,0,0,10,3.68,3.68,0,0,0,3.1-1.4v1.2h1.9Zm-7.7,0a3,3,0,1,1,3,3.2C85,88.6,83.85,87.1,83.85,85.3Zm27.1,0V76.7h-1.9v5a3.68,3.68,0,0,0-3.1-1.4,5,5,0,0,0,0,10,3.68,3.68,0,0,0,3.1-1.4v1.2H111Zm-7.8,0a3,3,0,1,1,3,3.2,2.94,2.94,0,0,1-3-3.2Z"/><g id="_Group_" data-name=" Group "><rect class="cls-1" x="40.95" y="7.7" width="34.7" height="56.6"/><path id="_Path_" data-name=" Path " class="cls-2" d="M44.55,36A36.1,36.1,0,0,1,58.25,7.7a36,36,0,1,0,0,56.6A36.1,36.1,0,0,1,44.55,36Z"/><path class="cls-3" d="M113.05,58.3V57.1h.5v-.2h-1.2v.2h.5v1.2Zm2.4,0V56.9h-.4l-.4,1-.4-1h-.4v1.4h.3V57.2l.4.9h.3l.4-.9v1.1Z"/><path class="cls-3" d="M116.55,36a36,36,0,0,1-58.2,28.3,36.08,36.08,0,0,0,0-56.6A36,36,0,0,1,116.55,36Z"/></g></g></g></svg>