<svg xmlns:xlink="http://www.w3.org/1999/xlink" xmlns="http://www.w3.org/2000/svg" width="59" height="28" fill="none"><path d="M40 14v7h4.439v-3.938h4.468c2.333 0 4.325-1.271 5.093-3.062H40z" fill="#006848"/><path d="M40 7a6 6 0 00.152 1.129c.014.074.041.163.055.237.014.03.014.06.027.104.773 2.629 3.049 4.53 5.738 4.53h7.945c.055-.297.083-.594.083-.906 0-1.485-.593-2.822-1.545-3.757C51.614 7.505 50.496 7 49.255 7H40z" fill="url(#paint0_linear_6005_218304)"/><path d="M31.906 8.479l-3.134 6.792h-.316V7H24v14h3.78c.992 0 1.898-.574 2.314-1.479l3.134-6.792h.316V21H38V7h-3.78c-.992 0-1.898.574-2.314 1.479zm-19.944.359l1.886 6.433h.319l1.87-6.433A2.56 2.56 0 0118.505 7H23v14h-4.496v-8.27h-.32L15.604 21h-3.206l-2.582-8.27h-.319V21H5V7h4.496a2.56 2.56 0 012.466 1.838z" fill="#006848"/><defs><linearGradient id="paint0_linear_6005_218304" x1="39.998" y1="10.002" x2="53.996" y2="10.002" gradientUnits="userSpaceOnUse"><stop stop-color="#02AFFF"/><stop offset="1" stop-color="#1F5BDE"/></linearGradient></defs></svg>