<?xml version="1.0" encoding="utf-8"?>
<!-- Generator: Adobe Illustrator 24.1.2, SVG Export Plug-In . SVG Version: 6.00 Build 0)  -->
<svg version="1.1" id="Layer_1" xmlns="http://www.w3.org/2000/svg" xmlns:xlink="http://www.w3.org/1999/xlink" x="0px" y="0px"
	 viewBox="0 0 92.2 36.4" style="enable-background:new 0 0 92.2 36.4;" xml:space="preserve">
<style type="text/css">
	.st0{fill:#253B80;}
	.st1{fill:#179BD7;}
</style>
<path class="st0" d="M12.5,9.1H5.6c-0.5,0-0.9,0.3-0.9,0.8L1.9,27.5c-0.1,0.3,0.2,0.7,0.6,0.7h3.3c0.5,0,0.9-0.3,0.9-0.8l0.7-4.7
	c0.1-0.5,0.5-0.8,0.9-0.8h2.2c4.5,0,7.1-2.2,7.8-6.5c0.3-1.9,0-3.4-0.9-4.4C16.5,9.7,14.7,9.1,12.5,9.1z M13.2,15.5
	C12.9,18,11,18,9.2,18h-1l0.7-4.6c0-0.3,0.3-0.5,0.6-0.5h0.5c1.2,0,2.4,0,3,0.7C13.3,14,13.4,14.7,13.2,15.5z"/>
<path class="st0" d="M32.9,15.5h-3.3c-0.3,0-0.5,0.2-0.6,0.5l-0.1,0.9l-0.2-0.3c-0.7-1-2.3-1.4-3.9-1.4c-3.6,0-6.7,2.7-7.3,6.6
	c-0.3,1.9,0.1,3.8,1.2,5c1,1.2,2.4,1.7,4.1,1.7c2.9,0,4.5-1.9,4.5-1.9l-0.1,0.9c-0.1,0.3,0.2,0.7,0.6,0.7h2.9c0.5,0,0.9-0.3,0.9-0.8
	l1.8-11.2C33.5,15.8,33.2,15.5,32.9,15.5z M28.3,21.8C28,23.7,26.5,25,24.6,25c-1,0-1.7-0.3-2.2-0.9c-0.5-0.6-0.7-1.4-0.5-2.3
	c0.3-1.9,1.8-3.2,3.7-3.2c0.9,0,1.7,0.3,2.2,0.9C28.3,20.1,28.5,20.9,28.3,21.8z"/>
<path class="st0" d="M50.3,15.5h-3.3c-0.3,0-0.6,0.2-0.8,0.4l-4.5,6.7l-1.9-6.4c-0.1-0.4-0.5-0.7-0.9-0.7h-3.2
	c-0.4,0-0.7,0.4-0.5,0.8l3.6,10.6l-3.4,4.8c-0.3,0.4,0,0.9,0.5,0.9h3.3c0.3,0,0.6-0.2,0.8-0.4l10.9-15.8
	C51.1,16,50.8,15.5,50.3,15.5z"/>
<path class="st1" d="M61.2,9.1h-6.8c-0.5,0-0.9,0.3-0.9,0.8l-2.8,17.5c-0.1,0.3,0.2,0.7,0.6,0.7h3.5c0.3,0,0.6-0.2,0.7-0.6l0.8-5
	c0.1-0.5,0.5-0.8,0.9-0.8h2.2c4.5,0,7.1-2.2,7.8-6.5c0.3-1.9,0-3.4-0.9-4.4C65.2,9.7,63.5,9.1,61.2,9.1z M62,15.5
	C61.7,18,59.8,18,58,18h-1l0.7-4.6c0-0.3,0.3-0.5,0.6-0.5h0.5c1.2,0,2.4,0,3,0.7C62.1,14,62.2,14.7,62,15.5z"/>
<path class="st1" d="M81.7,15.5h-3.3c-0.3,0-0.5,0.2-0.6,0.5l-0.1,0.9l-0.2-0.3c-0.7-1-2.3-1.4-3.9-1.4c-3.6,0-6.7,2.7-7.3,6.6
	c-0.3,1.9,0.1,3.8,1.2,5c1,1.2,2.4,1.7,4.1,1.7c2.9,0,4.5-1.9,4.5-1.9L76,27.5c-0.1,0.3,0.2,0.7,0.6,0.7h2.9c0.5,0,0.9-0.3,0.9-0.8
	l1.8-11.2C82.3,15.8,82,15.5,81.7,15.5z M77.1,21.8c-0.3,1.9-1.8,3.1-3.7,3.1c-0.9,0-1.7-0.3-2.2-0.9c-0.5-0.6-0.7-1.4-0.5-2.3
	c0.3-1.9,1.8-3.2,3.7-3.2c0.9,0,1.7,0.3,2.2,0.9C77.1,20.1,77.3,20.9,77.1,21.8z"/>
<path class="st1" d="M85.5,9.6l-2.8,17.9c-0.1,0.3,0.2,0.7,0.6,0.7h2.8c0.5,0,0.9-0.3,0.9-0.8l2.8-17.5c0.1-0.3-0.2-0.7-0.6-0.7
	h-3.2C85.8,9.1,85.6,9.3,85.5,9.6z"/>
</svg>
