<svg xmlns:xlink="http://www.w3.org/1999/xlink" xmlns="http://www.w3.org/2000/svg" width="46" height="28" fill="none"><path fill-rule="evenodd" clip-rule="evenodd" d="M9.059 9.715l.672 4.787-.014-.024.135.71.37 1.908 3.111-8.857h3.514l-5.194 12.88H8.247v-.003L5.461 10.12A10.855 10.855 0 002 8.69v-.685h5.042a1.882 1.882 0 012.017 1.71zm29.56 9.488l.383 1.913H42L39.386 8.234H36.76a1.506 1.506 0 00-1.506.963l-4.868 11.919h3.403l.681-1.913h4.148zm-3.212-2.643l1.718-4.82.962 4.82h-2.68zm-7.754-3.29c-.867-.48-1.586-.877-1.586-1.456v-.002c0-1.456 3.178-1.269 4.575-.478l.47-2.767a9.207 9.207 0 00-2.94-.56c-1.62 0-5.466.727-5.466 4.266 0 1.93 1.518 2.754 2.794 3.447.924.502 1.72.935 1.72 1.669 0 1.746-4.051 1.434-5.384.332l-.486 2.891a8.94 8.94 0 003.684.728c2.227 0 5.588-1.185 5.588-4.41 0-2.017-1.655-2.933-2.97-3.66zm-9.539-5.036l-2.04 12.882h3.264l2.04-12.882h-3.264z" fill="#173AC3"/></svg>